<svg width="45" height="45" viewBox="0 0 45 45" fill="none" xmlns="http://www.w3.org/2000/svg">
<g clip-path="url(#clip0_402_629)">
<rect opacity="0.1" width="45" height="45" rx="14" fill="#6347EB"/>
<path d="M31.125 18.6667C31.125 19.0083 30.8417 19.2917 30.5 19.2917H15.5C15.1583 19.2917 14.875 19.0083 14.875 18.6667C14.875 18.325 15.1583 18.0417 15.5 18.0417H16.35L16.6667 16.5333C16.9667 15.075 17.5917 13.7333 20.075 13.7333H25.925C28.4083 13.7333 29.0333 15.075 29.3333 16.5333L29.65 18.0417H30.5C30.8417 18.0417 31.125 18.325 31.125 18.6667Z" fill="#6347EB"/>
<path d="M31.4834 23.3833C31.3584 22.0083 30.9917 20.5417 28.3167 20.5417H17.6834C15.0084 20.5417 14.65 22.0083 14.5167 23.3833L14.05 28.4583C13.9917 29.0917 14.2 29.725 14.6334 30.2C15.075 30.6833 15.7 30.9583 16.3667 30.9583H17.9334C19.2834 30.9583 19.5417 30.1833 19.7084 29.675L19.875 29.175C20.0667 28.6 20.1167 28.4583 20.8667 28.4583H25.1334C25.8834 28.4583 25.9084 28.5417 26.125 29.175L26.2917 29.675C26.4584 30.1833 26.7167 30.9583 28.0667 30.9583H29.6334C30.2917 30.9583 30.925 30.6833 31.3667 30.2C31.8 29.725 32.0084 29.0917 31.95 28.4583L31.4834 23.3833ZM20.5 25.125H18C17.6584 25.125 17.375 24.8417 17.375 24.5C17.375 24.1583 17.6584 23.875 18 23.875H20.5C20.8417 23.875 21.125 24.1583 21.125 24.5C21.125 24.8417 20.8417 25.125 20.5 25.125ZM28 25.125H25.5C25.1584 25.125 24.875 24.8417 24.875 24.5C24.875 24.1583 25.1584 23.875 25.5 23.875H28C28.3417 23.875 28.625 24.1583 28.625 24.5C28.625 24.8417 28.3417 25.125 28 25.125Z" fill="#6347EB"/>
</g>
<defs>
<clipPath id="clip0_402_629">
<rect width="45" height="45" fill="white"/>
</clipPath>
</defs>
</svg>
