<svg width="45" height="45" viewBox="0 0 45 45" fill="none" xmlns="http://www.w3.org/2000/svg">
<g clip-path="url(#clip0_402_594)">
<rect opacity="0.1" width="45" height="45" rx="14" fill="#F46040"/>
<path d="M18.8333 13.6667H18C15.5 13.6667 14.6666 15.1583 14.6666 17V17.8333V29.5C14.6666 30.1917 15.45 30.5833 16 30.1667L17.425 29.1C17.7583 28.85 18.225 28.8833 18.525 29.1833L19.9083 30.575C20.2333 30.9 20.7666 30.9 21.0916 30.575L22.4916 29.175C22.7833 28.8833 23.25 28.85 23.575 29.1L25 30.1667C25.55 30.575 26.3333 30.1833 26.3333 29.5V15.3333C26.3333 14.4167 27.0833 13.6667 28 13.6667H18.8333ZM22.375 23.4583H18.625C18.2833 23.4583 18 23.175 18 22.8333C18 22.4917 18.2833 22.2083 18.625 22.2083H22.375C22.7166 22.2083 23 22.4917 23 22.8333C23 23.175 22.7166 23.4583 22.375 23.4583ZM23 20.125H18C17.6583 20.125 17.375 19.8417 17.375 19.5C17.375 19.1583 17.6583 18.875 18 18.875H23C23.3416 18.875 23.625 19.1583 23.625 19.5C23.625 19.8417 23.3416 20.125 23 20.125Z" fill="#F46040"/>
<path d="M28.0084 13.6667V14.9167C28.5584 14.9167 29.0834 15.1417 29.4667 15.5167C29.8667 15.925 30.0834 16.45 30.0834 17V19.0167C30.0834 19.6333 29.8084 19.9167 29.1834 19.9167H27.5834V15.3417C27.5834 15.1083 27.775 14.9167 28.0084 14.9167V13.6667ZM28.0084 13.6667C27.0834 13.6667 26.3334 14.4167 26.3334 15.3417V21.1667H29.1834C30.5 21.1667 31.3334 20.3333 31.3334 19.0167V17C31.3334 16.0833 30.9584 15.25 30.3584 14.6417C29.75 14.0417 28.925 13.675 28.0084 13.6667C28.0084 13.6667 28.0167 13.6667 28.0084 13.6667Z" fill="#F46040"/>
</g>
<defs>
<clipPath id="clip0_402_594">
<rect width="45" height="45" fill="white"/>
</clipPath>
</defs>
</svg>
